<?xml version="1.0"?>
<svg xmlns="http://www.w3.org/2000/svg" viewBox="0 0 64 64" width="50" height="50"><g id="Css"><path d="M55,15H54V9a3,3,0,0,0-3-3H50V5a3,3,0,0,0-3-3H9A3,3,0,0,0,6,5V55a3,3,0,0,0,3,3h1v1a3,3,0,0,0,3,3H51a3,3,0,0,0,3-3V41h1a3,3,0,0,0,3-3V18A3,3,0,0,0,55,15ZM51,8a1,1,0,0,1,1,1v6H50V8ZM14,4h2V6.7l-.168-.252a1.039,1.039,0,0,0-1.664,0L14,6.7ZM8,55V5A1,1,0,0,1,9,4h3v6a1,1,0,0,0,1.832.555L15,8.8l1.168,1.752A1,1,0,0,0,18,10V4H47a1,1,0,0,1,1,1V15H17a3,3,0,0,0-3,3V38a3,3,0,0,0,3,3H48V55a1,1,0,0,1-1,1H9A1,1,0,0,1,8,55Zm44,4a1,1,0,0,1-1,1H13a1,1,0,0,1-1-1V58H47a3,3,0,0,0,3-3V41h2Zm4-21a1,1,0,0,1-1,1H17a1,1,0,0,1-1-1V18a1,1,0,0,1,1-1H55a1,1,0,0,1,1,1Z"/><path d="M25,24h2a1,1,0,0,1,1,1h2a3,3,0,0,0-3-3H25a3,3,0,0,0-3,3v6a3,3,0,0,0,3,3h2a3,3,0,0,0,3-3H28a1,1,0,0,1-1,1H25a1,1,0,0,1-1-1V25A1,1,0,0,1,25,24Z"/><path d="M35,24h2a1,1,0,0,1,1,1h2a3,3,0,0,0-3-3H35a3,3,0,0,0-3,3v1a3,3,0,0,0,3,3h2a1,1,0,0,1,1,1v1a1,1,0,0,1-1,1H35a1,1,0,0,1-1-1H32a3,3,0,0,0,3,3h2a3,3,0,0,0,3-3V30a3,3,0,0,0-3-3H35a1,1,0,0,1-1-1V25A1,1,0,0,1,35,24Z"/><path d="M45,24h2a1,1,0,0,1,1,1h2a3,3,0,0,0-3-3H45a3,3,0,0,0-3,3v1a3,3,0,0,0,3,3h2a1,1,0,0,1,1,1v1a1,1,0,0,1-1,1H45a1,1,0,0,1-1-1H42a3,3,0,0,0,3,3h2a3,3,0,0,0,3-3V30a3,3,0,0,0-3-3H45a1,1,0,0,1-1-1V25A1,1,0,0,1,45,24Z"/>
</g>
</svg>
